<?xml version="1.0" encoding="UTF-8"?>
<svg width="16px" height="16px" viewBox="0 0 16 16" version="1.1" xmlns="http://www.w3.org/2000/svg" xmlns:xlink="http://www.w3.org/1999/xlink">
    <!-- Generator: Sketch 53.2 (72643) - https://sketchapp.com -->
    <title>Fill 1</title>
    <desc>Created with Sketch.</desc>
    <g id="symbol" stroke="none" stroke-width="1" fill="none" fill-rule="evenodd">
        <g id="tgicon" transform="translate(-2.000000, -2.000000)" fill="#FFFFFF">
            <path d="M15.65625,4.34375 C14.093742,2.781242 12.208344,2 10,2 C7.791656,2 5.906258,2.781242 4.34375,4.34375 C2.7812422,5.906258 2,7.791656 2,10 C2,12.208344 2.7812422,14.093742 4.34375,15.65625 C5.906258,17.2187578 7.791656,18 10,18 C12.208344,18 14.093742,17.2187578 15.65625,15.65625 C17.218758,14.093742 18,12.208344 18,10 C18,7.791656 17.218758,5.906258 15.65625,4.34375 Z M14.9375,14.96875 C13.583326,16.3229234 11.93751,17 10,17 C8.06249,17 6.411466,16.3177152 5.046876,14.953124 C3.6822848,13.588534 3,11.93751 3,10 C3,8.06249 3.6822848,6.411466 5.046876,5.046876 C6.411466,3.682284 8.06249,3 10,3 C11.93751,3 13.588534,3.682284 14.953124,5.046876 C16.317716,6.411466 17,8.06249 17,10 C17,11.93751 16.312506,13.593744 14.9375,14.96875 Z M10.6875,8.3125 C10.5,8.104166 10.270834,8 10,8 C9.729166,8 9.494792,8.098958 9.296876,8.296876 C9.098958,8.494792 9,8.729166 9,9 L9,14 C9,14.270834 9.098958,14.505208 9.296876,14.703124 C9.494792,14.901042 9.729166,15 10,15 C10.270834,15 10.505208,14.901042 10.703124,14.703124 C10.901042,14.505208 11,14.270834 11,14 L11,9 C11,8.729166 10.895834,8.5 10.6875,8.3125 Z M9.28125,5.3125 C9.09375,5.5 9,5.734374 9,6.015624 C9,6.296876 9.098958,6.536458 9.296876,6.734376 C9.494792,6.932292 9.729166,7.03125 10,7.03125 C10.270834,7.03125 10.505208,6.932292 10.703124,6.734376 C10.901042,6.536458 11,6.296876 11,6.015624 C11,5.734374 10.901042,5.5 10.703124,5.3125 C10.505208,5.125 10.270834,5.03125 10,5.03125 C9.729166,5.03125 9.489584,5.125 9.28125,5.3125 Z" id="Fill-1"></path>
        </g>
    </g>
</svg>