<?xml version="1.0" encoding="UTF-8"?>
<svg width="40px" height="40px" viewBox="0 0 40 40" version="1.1" xmlns="http://www.w3.org/2000/svg" xmlns:xlink="http://www.w3.org/1999/xlink">
    <!-- Generator: Sketch 53.2 (72643) - https://sketchapp.com -->
    <title>brd-i-sess</title>
    <desc>Created with Sketch.</desc>
    <defs>
        <linearGradient x1="50%" y1="0%" x2="50%" y2="100%" id="linearGradient-1">
            <stop stop-color="#985BFF" stop-opacity="0.993635271" offset="0%"></stop>
            <stop stop-color="#3BA9FF" offset="100%"></stop>
        </linearGradient>
    </defs>
    <g id="brd-i-sess" stroke="none" stroke-width="1" fill="none" fill-rule="evenodd">
        <path d="M8.9859323,36.0140677 L30.9953098,36.0140677 C31.5475945,36.0140677 31.9953098,36.4617829 31.9953098,37.0140677 L31.9953098,39 C31.9953098,39.5522847 31.5475945,40 30.9953098,40 L5,40 C4.44771525,40 4,39.5522847 4,39 L4,4.9859293 C4,4.43364455 4.44771525,3.9859293 5,3.9859293 L6.9859323,3.9859293 C7.53821705,3.9859293 7.9859323,4.43364455 7.9859323,4.9859293 L7.9859323,35.0140677 C7.9859323,35.5663524 8.43364755,36.0140677 8.9859323,36.0140677 Z M25.0874023,3.04988053 L25.0234512,2.9859293 L14.9882744,2.9859293 L14.9882744,29.0117256 L32.9953098,29.0117256 L32.9953098,11.4679015 L25.0874023,11.3061882 L25.0874023,3.04988053 Z M12.9718646,32.9976549 C12.7217649,32.9976549 12.4716712,32.9507646 12.2215715,32.8569719 C11.9714718,32.7631853 11.7526383,32.6225083 11.565065,32.434935 C11.3774917,32.2473617 11.2368147,32.0285282 11.1430281,31.7784285 C11.0492354,31.5283288 11.0023451,31.262605 11.0023451,30.9812391 L11.0023451,0.969513489 C11.0023451,0.438053848 11.1977335,-0.0230583089 11.5885101,-0.413834985 C11.9792928,-0.804617664 12.440405,-1 12.9718646,-1 L25.8206346,-1 C26.1019945,-1 26.3677244,-0.95310968 26.6178181,-0.859323038 C26.8679178,-0.765536395 27.0867513,-0.624859433 27.2743306,-0.437280145 L36.4185252,8.70691449 C36.6060985,8.89448778 36.7467755,9.11332127 36.8405681,9.36342099 C36.9343548,9.6135207 36.9812451,9.87924452 36.9812451,10.1606044 L36.9812451,30.9812391 C36.9812451,31.5439649 36.7858567,32.0207072 36.3950801,32.4114899 C36.0042974,32.8022665 35.5431852,32.9976549 35.0117256,32.9976549 L12.9718646,32.9976549 Z" id="Fill-1" fill="url(#linearGradient-1)"></path>
    </g>
</svg>