<?xml version="1.0" encoding="UTF-8"?>
<svg width="40px" height="40px" viewBox="0 0 40 40" version="1.1" xmlns="http://www.w3.org/2000/svg" xmlns:xlink="http://www.w3.org/1999/xlink">
    <!-- Generator: Sketch 53.2 (72643) - https://sketchapp.com -->
    <title>brd-i-speed</title>
    <desc>Created with Sketch.</desc>
    <defs>
        <linearGradient x1="50%" y1="0%" x2="50%" y2="100%" id="linearGradient-1">
            <stop stop-color="#985BFF" stop-opacity="0.993635271" offset="0%"></stop>
            <stop stop-color="#3BA9FF" offset="100%"></stop>
        </linearGradient>
    </defs>
    <g id="brd-i-speed" stroke="none" stroke-width="1" fill="none" fill-rule="evenodd">
        <path d="M2,26.75 C2,26.249996 2.2499975,26 2.75,26 L26,26 L26,22 C26,21.4477153 26.4477153,21 27,21 C27.2163702,21 27.4269038,21.0701779 27.6,21.2 L36.9333333,28.2 C37.3751611,28.5313708 37.4647042,29.1581722 37.1333333,29.6 C37.0764791,29.6758057 37.009139,29.7431458 36.9333333,29.8 L27.6,36.8 C27.1581722,37.1313708 26.5313708,37.0418278 26.2,36.6 C26.0701779,36.4269038 26,36.2163702 26,36 L26,32 L2.75,32 C2.2499975,32 2,31.750004 2,31.25 L2,26.75 Z M38,13.25 C38,13.750004 37.750004,14 37.25,14 L14,14 L14,18 C14,18.5522847 13.5522847,19 13,19 C12.7836298,19 12.5730962,18.9298221 12.4,18.8 L3.06666667,11.8 C2.62483887,11.4686292 2.53529582,10.8418278 2.86666667,10.4 C2.92352092,10.3241943 2.990861,10.2568542 3.06666667,10.2 L12.4,3.2 C12.8418278,2.86862915 13.4686292,2.9581722 13.8,3.4 C13.9298221,3.57309617 14,3.78362979 14,4 L14,8 L37.25,8 C37.750004,8 38,8.249996 38,8.75 L38,13.25 Z" id="Fill-1" fill="url(#linearGradient-1)"></path>
    </g>
</svg>