<?xml version="1.0" encoding="UTF-8"?>
<svg width="40px" height="40px" viewBox="0 0 40 40" version="1.1" xmlns="http://www.w3.org/2000/svg" xmlns:xlink="http://www.w3.org/1999/xlink">
    <!-- Generator: Sketch 53.2 (72643) - https://sketchapp.com -->
    <title>brd-i-throu</title>
    <desc>Created with Sketch.</desc>
    <defs>
        <linearGradient x1="50%" y1="0%" x2="50%" y2="100%" id="linearGradient-1">
            <stop stop-color="#985BFF" stop-opacity="0.993635271" offset="0%"></stop>
            <stop stop-color="#3BA9FF" offset="100%"></stop>
        </linearGradient>
    </defs>
    <g id="brd-i-throu" stroke="none" stroke-width="1" fill="none" fill-rule="evenodd">
        <g id="sound-waves" transform="translate(0.000000, 1.000000)" fill="url(#linearGradient-1)" fill-rule="nonzero">
            <path d="M8.07956688,5.20824178 C9.10618363,5.20824178 9.92670064,6.0609801 9.92670064,7.10019492 C9.92670064,8.13933427 9.10613638,8.99214806 8.07956688,8.99214806 L2.34713376,8.99214806 C1.32056426,8.99214806 0.5,8.13933427 0.5,7.10019492 C0.5,6.06105557 1.32056426,5.20824178 2.34713376,5.20824178 L8.07956688,5.20824178 Z M8.07956688,15 C9.10618363,15 9.92670064,15.8527383 9.92670064,16.8919531 C9.92670064,17.9310925 9.10613638,18.7839063 8.07956688,18.7839063 L2.34713376,18.7839063 C1.32056426,18.7839063 0.5,17.9310925 0.5,16.8919531 C0.5,15.8528138 1.32056426,15 2.34713376,15 L8.07956688,15 Z M8.07956688,25 C9.10618363,25 9.92670064,25.8527383 9.92670064,26.8919531 C9.92670064,27.9310925 9.10613638,28.7839063 8.07956688,28.7839063 L2.34713376,28.7839063 C1.32056426,28.7839063 0.5,27.9310925 0.5,26.8919531 C0.5,25.8528138 1.32056426,25 2.34713376,25 L8.07956688,25 Z M8.07956688,10.2095504 C9.10613638,10.2095504 9.92670064,11.0623642 9.92670064,12.1015036 C9.92670064,13.1406429 9.10613638,13.9934567 8.07956688,13.9934567 L2.34713376,13.9934567 C1.32056426,13.9934567 0.5,13.1406429 0.5,12.1015036 C0.5,11.0623642 1.32056426,10.2095504 2.34713376,10.2095504 L8.07956688,10.2095504 Z M8.07956688,20.001309 C9.10613638,20.001309 9.92670064,20.8541228 9.92670064,21.8932621 C9.92670064,22.9324015 9.10613638,23.7852153 8.07956688,23.7852153 L2.34713376,23.7852153 C1.32056426,23.7852153 0.5,22.9324015 0.5,21.8932621 C0.5,20.8541228 1.32056426,20.001309 2.34713376,20.001309 L8.07956688,20.001309 Z M8.07956688,30.001309 C9.10613638,30.001309 9.92670064,30.8541228 9.92670064,31.8932621 C9.92670064,32.9324015 9.10613638,33.7852153 8.07956688,33.7852153 L2.34713376,33.7852153 C1.32056426,33.7852153 0.5,32.9324015 0.5,31.8932621 C0.5,30.8541228 1.32056426,30.001309 2.34713376,30.001309 L8.07956688,30.001309 Z M8.07956688,35 C9.10613638,35 9.92670064,35.8528138 9.92670064,36.8919531 C9.92670064,37.9310925 9.10613638,38.7839063 8.07956688,38.7839063 L2.34713376,38.7839063 C1.32056426,38.7839063 0.5,37.9310925 0.5,36.8919531 C0.5,35.8528138 1.32056426,35 2.34713376,35 L8.07956688,35 Z M38.0795669,5.208242 C39.1061836,5.208242 39.9267006,6.06098032 39.9267006,7.10019514 C39.9267006,8.13933448 39.1061364,8.99214827 38.0795669,8.99214827 L32.3471338,8.99214827 C31.3205643,8.99214827 30.5,8.13933448 30.5,7.10019514 C30.5,6.06105579 31.3205643,5.208242 32.3471338,5.208242 L38.0795669,5.208242 Z M38.0795669,4.52970994e-14 C39.1061836,4.52970994e-14 39.9267006,0.852738319 39.9267006,1.89195314 C39.9267006,2.93109248 39.1061364,3.78390627 38.0795669,3.78390627 L32.3471338,3.78390627 C31.3205643,3.78390627 30.5,2.93109248 30.5,1.89195314 C30.5,0.852813788 31.3205643,4.52970994e-14 32.3471338,4.52970994e-14 L38.0795669,4.52970994e-14 Z M38.0795669,15.0000002 C39.1061836,15.0000002 39.9267006,15.8527385 39.9267006,16.8919534 C39.9267006,17.9310927 39.1061364,18.7839065 38.0795669,18.7839065 L32.3471338,18.7839065 C31.3205643,18.7839065 30.5,17.9310927 30.5,16.8919534 C30.5,15.852814 31.3205643,15.0000002 32.3471338,15.0000002 L38.0795669,15.0000002 Z M38.0795669,25.0000002 C39.1061836,25.0000002 39.9267006,25.8527385 39.9267006,26.8919534 C39.9267006,27.9310927 39.1061364,28.7839065 38.0795669,28.7839065 L32.3471338,28.7839065 C31.3205643,28.7839065 30.5,27.9310927 30.5,26.8919534 C30.5,25.852814 31.3205643,25.0000002 32.3471338,25.0000002 L38.0795669,25.0000002 Z M38.0795669,10.2095507 C39.1061364,10.2095507 39.9267006,11.0623644 39.9267006,12.1015038 C39.9267006,13.1406431 39.1061364,13.9934569 38.0795669,13.9934569 L32.3471338,13.9934569 C31.3205643,13.9934569 30.5,13.1406431 30.5,12.1015038 C30.5,11.0623644 31.3205643,10.2095507 32.3471338,10.2095507 L38.0795669,10.2095507 Z M38.0795669,20.0013092 C39.1061364,20.0013092 39.9267006,20.854123 39.9267006,21.8932624 C39.9267006,22.9324017 39.1061364,23.7852155 38.0795669,23.7852155 L32.3471338,23.7852155 C31.3205643,23.7852155 30.5,22.9324017 30.5,21.8932624 C30.5,20.854123 31.3205643,20.0013092 32.3471338,20.0013092 L38.0795669,20.0013092 Z M38.0795669,30.0013092 C39.1061364,30.0013092 39.9267006,30.854123 39.9267006,31.8932624 C39.9267006,32.9324017 39.1061364,33.7852155 38.0795669,33.7852155 L32.3471338,33.7852155 C31.3205643,33.7852155 30.5,32.9324017 30.5,31.8932624 C30.5,30.854123 31.3205643,30.0013092 32.3471338,30.0013092 L38.0795669,30.0013092 Z M38.0795669,35.0000002 C39.1061364,35.0000002 39.9267006,35.852814 39.9267006,36.8919534 C39.9267006,37.9310927 39.1061364,38.7839065 38.0795669,38.7839065 L32.3471338,38.7839065 C31.3205643,38.7839065 30.5,37.9310927 30.5,36.8919534 C30.5,35.852814 31.3205643,35.0000002 32.3471338,35.0000002 L38.0795669,35.0000002 Z M18.0795669,15.0000002 C19.1061836,15.0000002 19.9267006,15.8527385 19.9267006,16.8919534 C19.9267006,17.9310927 19.1061364,18.7839065 18.0795669,18.7839065 L12.3471338,18.7839065 C11.3205643,18.7839065 10.5,17.9310927 10.5,16.8919534 C10.5,15.852814 11.3205643,15.0000002 12.3471338,15.0000002 L18.0795669,15.0000002 Z M18.0795669,25.0000002 C19.1061836,25.0000002 19.9267006,25.8527385 19.9267006,26.8919534 C19.9267006,27.9310927 19.1061364,28.7839065 18.0795669,28.7839065 L12.3471338,28.7839065 C11.3205643,28.7839065 10.5,27.9310927 10.5,26.8919534 C10.5,25.852814 11.3205643,25.0000002 12.3471338,25.0000002 L18.0795669,25.0000002 Z M18.0795669,20.0013092 C19.1061364,20.0013092 19.9267006,20.854123 19.9267006,21.8932624 C19.9267006,22.9324017 19.1061364,23.7852155 18.0795669,23.7852155 L12.3471338,23.7852155 C11.3205643,23.7852155 10.5,22.9324017 10.5,21.8932624 C10.5,20.854123 11.3205643,20.0013092 12.3471338,20.0013092 L18.0795669,20.0013092 Z M18.0795669,30.0013092 C19.1061364,30.0013092 19.9267006,30.854123 19.9267006,31.8932624 C19.9267006,32.9324017 19.1061364,33.7852155 18.0795669,33.7852155 L12.3471338,33.7852155 C11.3205643,33.7852155 10.5,32.9324017 10.5,31.8932624 C10.5,30.854123 11.3205643,30.0013092 12.3471338,30.0013092 L18.0795669,30.0013092 Z M18.0795669,35.0000002 C19.1061364,35.0000002 19.9267006,35.852814 19.9267006,36.8919534 C19.9267006,37.9310927 19.1061364,38.7839065 18.0795669,38.7839065 L12.3471338,38.7839065 C11.3205643,38.7839065 10.5,37.9310927 10.5,36.8919534 C10.5,35.852814 11.3205643,35.0000002 12.3471338,35.0000002 L18.0795669,35.0000002 Z M28.0795669,30.0013092 C29.1061364,30.0013092 29.9267006,30.854123 29.9267006,31.8932624 C29.9267006,32.9324017 29.1061364,33.7852155 28.0795669,33.7852155 L22.3471338,33.7852155 C21.3205643,33.7852155 20.5,32.9324017 20.5,31.8932624 C20.5,30.854123 21.3205643,30.0013092 22.3471338,30.0013092 L28.0795669,30.0013092 Z M28.0795669,35.0000002 C29.1061364,35.0000002 29.9267006,35.852814 29.9267006,36.8919534 C29.9267006,37.9310927 29.1061364,38.7839065 28.0795669,38.7839065 L22.3471338,38.7839065 C21.3205643,38.7839065 20.5,37.9310927 20.5,36.8919534 C20.5,35.852814 21.3205643,35.0000002 22.3471338,35.0000002 L28.0795669,35.0000002 Z" id="Combined-Shape"></path>
        </g>
    </g>
</svg>