<?xml version="1.0" encoding="UTF-8"?>
<svg width="140px" height="50px" viewBox="0 0 140 50" version="1.1" xmlns="http://www.w3.org/2000/svg" xmlns:xlink="http://www.w3.org/1999/xlink">
    <!-- Generator: Sketch 53.2 (72643) - https://sketchapp.com -->
    <title>logo</title>
    <desc>Created with Sketch.</desc>
    <g id="logo" stroke="none" stroke-width="1" fill="none" fill-rule="evenodd">
        <g transform="translate(0.000000, 12.000000)" fill="#FFFFFF" fill-rule="nonzero">
            <path d="M59.4806,4.69592 C57.6725,4.69592 55.7941,5.18876 53.4694,6.43377 L54.7609,9.62741 C56.7798,8.50019 58.4474,8.00735 59.6687,8.00735 C61.0542,8.00735 61.6648,8.52395 61.6648,9.20483 L61.6648,9.25133 C61.6648,9.72143 61.2887,9.97974 60.3733,10.0738 L58.777,10.238 C54.7847,10.6606 53.1409,12.3985 53.1409,14.7934 L53.1409,14.9577 C53.1409,17.2359 55.0192,19.0203 57.6725,19.0203 C59.4197,19.0203 60.9374,18.2826 61.8601,16.9807 L62.1577,18.7857 L65.7739,18.7857 L65.7739,10.5904 C65.7739,6.71584 63.5432,4.69592 59.4806,4.69592 Z M59.1283,15.8969 C57.7903,15.8969 57.1559,15.3803 57.1559,14.5816 L57.1559,14.5351 C57.1559,13.8305 57.5547,13.3139 59.0105,13.1031 L59.6449,13.0091 C60.5717,12.8799 61.141,12.7095 61.6648,12.3923 L61.6648,13.4317 C61.6648,15.0052 60.6781,15.8969 59.1283,15.8969 Z" id="Shape"></path>
            <g id="Group-2" transform="translate(0.000000, 0.164063)">
                <polygon id="Path" points="25.4785 4.625877 20.8529 0.000213 16.2272 4.625877 18.5281 6.927857 6.92834 18.527637 11.554 23.153337 16.1797 18.527637 13.8787 16.226737"></polygon>
                <polygon id="Path" points="11.6001 -6.03961325e-14 4.86721774e-13 11.600137 4.62603 16.226137 16.2262 4.626027"></polygon>
                <polygon id="Path" points="27.7795 6.928087 16.1793 18.528237 20.8054 23.154237 32.4055 11.554137"></polygon>
            </g>
            <polygon id="Path" points="72.2314 0 68.1223 0 68.1223 18.7857 72.2314 18.7857"></polygon>
            <path d="M46.2362,4.69592 C44.3681,4.69592 42.8679,5.52249 42.0424,6.81709 L41.7283,4.93046 L38.1121,4.93046 L38.1121,23.4806 L42.2211,23.4806 L42.2211,17.051 C43.0033,18.2567 44.4828,19.0193 46.2362,19.0193 C49.5238,19.0193 52.2009,16.1077 52.2009,12.0916 L52.2009,11.6215 C52.2009,7.60853 49.5238,4.69592 46.2362,4.69592 Z M47.974,11.9759 C47.974,14.0888 46.8705,15.6159 45.0387,15.6159 C43.2068,15.6159 42.1033,14.0898 42.1033,11.9759 L42.1033,11.7414 C42.1033,9.62741 43.2068,8.10137 45.0387,8.10137 C46.8705,8.10137 47.974,9.62741 47.974,11.7414 L47.974,11.9759 Z" id="Shape"></path>
            <path d="M127.672,4.69592 C123.469,4.69592 120.51,7.6075 120.51,11.6236 L120.51,12.0937 C120.51,16.1087 123.469,19.0213 127.672,19.0213 C131.875,19.0213 134.834,16.1097 134.834,12.0937 L134.834,11.6236 C134.834,7.60853 131.875,4.69592 127.672,4.69592 Z M130.607,11.9759 C130.607,14.0888 129.504,15.6159 127.672,15.6159 C125.84,15.6159 124.736,14.0898 124.736,11.9759 L124.736,11.7414 C124.736,9.62741 125.84,8.10137 127.672,8.10137 C129.504,8.10137 130.607,9.62741 130.607,11.7414 L130.607,11.9759 Z" id="Shape"></path>
            <path d="M138.709,5.54211 L138.709,5.47185 C138.709,5.07304 138.404,4.79097 137.864,4.79097 L136.924,4.79097 L136.924,6.9514 L137.371,6.9514 L137.371,6.22299 L137.867,6.22299 L138.24,6.9514 L138.733,6.9514 L138.274,6.09694 C138.553,6.01119 138.709,5.80248 138.709,5.54211 Z M137.37,5.18979 L137.863,5.18979 C138.145,5.18979 138.261,5.28381 138.261,5.49562 L138.261,5.51938 C138.261,5.70742 138.144,5.82418 137.863,5.82418 L137.37,5.82418 L137.37,5.18979 Z" id="Shape"></path>
            <path d="M137.77,3.63997 C136.502,3.63997 135.539,4.60292 135.539,5.87066 C135.539,7.1384 136.502,8.10135 137.77,8.10135 C139.037,8.10135 140,7.1384 140,5.87066 C140,4.60292 139.037,3.63997 137.77,3.63997 Z M137.77,7.79552 C136.666,7.79552 135.868,6.99685 135.868,5.86963 C135.868,4.7424 136.666,3.94373 137.77,3.94373 C138.873,3.94373 139.672,4.7424 139.672,5.86963 C139.672,6.99685 138.873,7.79552 137.77,7.79552 Z" id="Shape"></path>
            <polygon id="Path" points="108.416 0 104.307 0 104.307 18.7857 108.416 18.7857"></polygon>
            <path d="M116.518,15.6159 C115.321,15.6159 114.875,15.029 114.875,13.7613 L114.875,8.10136 L119.712,8.10136 L119.712,4.93148 L114.875,4.93148 L114.875,1.76057 L110.766,2.3712 L110.766,14.159 C110.766,17.3764 112.409,19.0203 115.697,19.0203 C117.153,19.0203 118.867,18.5739 120.276,17.7753 L119.102,14.8637 C118.279,15.31 117.129,15.6159 116.518,15.6159 Z" id="Path"></path>
            <path d="M95.6662,4.69592 C93.8581,4.69592 91.9797,5.18876 89.655,6.43377 L90.9465,9.62741 C92.9654,8.50019 94.633,8.00735 95.8542,8.00735 C97.2397,8.00735 97.8504,8.52395 97.8504,9.20483 L97.8504,9.25133 C97.8504,9.72143 97.4743,9.97974 96.5589,10.0738 L94.9626,10.238 C90.9702,10.6606 89.3264,12.3985 89.3264,14.7934 L89.3264,14.9577 C89.3264,17.2359 91.2048,19.0203 93.8581,19.0203 C95.6042,19.0203 97.123,18.2826 98.0456,16.9807 L98.3432,18.7857 L101.959,18.7857 L101.959,10.5904 C101.959,6.71584 99.7287,4.69592 95.6662,4.69592 Z M95.3138,15.8969 C93.9748,15.8969 93.3415,15.3803 93.3415,14.5816 L93.3415,14.5351 C93.3415,13.8305 93.7403,13.3139 95.1961,13.1031 L95.8304,13.0091 C96.7572,12.8799 97.3265,12.7095 97.8493,12.3923 L97.8493,13.4317 C97.8493,15.0052 96.8637,15.8969 95.3138,15.8969 Z" id="Shape"></path>
            <path d="M81.2247,4.69592 C77.0216,4.69592 74.0625,7.6075 74.0625,11.6236 L74.0625,12.0937 C74.0625,16.1087 77.0216,19.0213 81.2247,19.0213 C85.4278,19.0213 88.3869,16.1097 88.3869,12.0937 L88.3869,11.6236 C88.3858,7.60853 85.4278,4.69592 81.2247,4.69592 Z M84.159,11.9759 C84.159,14.0888 83.0555,15.6159 81.2236,15.6159 C79.3918,15.6159 78.2883,14.0898 78.2883,11.9759 L78.2883,11.7414 C78.2883,9.62741 79.3918,8.10137 81.2236,8.10137 C83.0555,8.10137 84.159,9.62741 84.159,11.7414 L84.159,11.9759 Z" id="Shape"></path>
            <polygon id="Path" points="98.0448 22.1168 99.0976 22.1168 100.551 24.0334 100.566 24.0334 100.566 22.1168 101.532 22.1168 101.532 25.4964 100.513 25.4964 99.0253 23.5312 99.0109 23.5312 99.0109 25.4964 98.0448 25.4964"></polygon>
            <polygon id="Path" points="102.816 22.1168 105.771 22.1168 105.81 22.9372 103.826 22.9372 103.826 23.4011 105.385 23.4011 105.385 24.1491 103.826 24.1491 103.826 24.676 105.868 24.676 105.829 25.4964 102.816 25.4964"></polygon>
            <polygon id="Path" points="107.925 22.9857 106.742 22.9857 106.78 22.1168 110.088 22.1168 110.127 22.9857 108.944 22.9857 108.944 25.4964 107.925 25.4964"></polygon>
            <polygon id="Path" points="110.943 22.1168 112.024 22.1168 112.574 24.4632 112.628 24.4632 113.342 22.1168 114.333 22.1168 115.032 24.4632 115.086 24.4632 115.626 22.1168 116.66 22.1168 115.771 25.4964 114.443 25.4964 113.826 23.4589 113.797 23.4589 113.168 25.4964 111.836 25.4964"></polygon>
            <path d="M117.404,23.8071 C117.404,22.7057 118.152,22.0155 119.335,22.0155 C120.518,22.0155 121.267,22.7057 121.267,23.8071 C121.267,24.9085 120.519,25.5987 119.335,25.5987 C118.152,25.5987 117.404,24.9075 117.404,23.8071 Z M120.258,23.8071 C120.258,23.2234 119.92,22.8752 119.335,22.8752 C118.75,22.8752 118.412,23.2234 118.412,23.8071 C118.412,24.3919 118.75,24.7391 119.33,24.7391 C119.915,24.7391 120.258,24.3909 120.258,23.8071 Z" id="Shape"></path>
            <path d="M122.364,22.1168 L124.334,22.1168 C125.232,22.1168 125.672,22.5414 125.672,23.3287 C125.672,23.8691 125.45,24.2369 125.015,24.4105 L125.816,25.4974 L124.668,25.4974 L124.045,24.6089 L123.378,24.6089 L123.378,25.4974 L122.364,25.4974 L122.364,22.1168 Z M124.203,23.8164 C124.54,23.8164 124.661,23.6284 124.661,23.3721 C124.661,23.1159 124.54,22.933 124.203,22.933 L123.377,22.933 L123.377,23.8164 L124.203,23.8164 Z" id="Shape"></path>
            <polygon id="Path" points="126.989 22.1168 128.003 22.1168 128.003 23.3628 128.418 23.3628 129.408 22.1168 130.548 22.1168 130.553 22.1209 129.259 23.7389 130.625 25.4923 130.62 25.4964 129.437 25.4964 128.414 24.1977 128.003 24.1977 128.003 25.4964 126.989 25.4964"></polygon>
            <path d="M131.402,25.2743 L131.402,24.3475 L131.407,24.3475 C131.972,24.6326 132.523,24.7721 133,24.7721 C133.363,24.7721 133.546,24.6853 133.546,24.5159 C133.546,24.3464 133.425,24.3031 132.701,24.1873 C131.909,24.0623 131.382,23.8247 131.382,23.1438 C131.382,22.5115 131.938,22.0238 133.024,22.0238 C133.459,22.0238 133.913,22.1158 134.333,22.2945 L134.333,23.212 L134.328,23.2172 C133.927,22.9857 133.387,22.84 132.952,22.84 C132.565,22.84 132.411,22.932 132.411,23.0859 C132.411,23.2843 132.648,23.3029 133.242,23.4052 C134.033,23.5405 134.56,23.7627 134.56,24.4777 C134.56,25.0325 134.145,25.5884 132.953,25.5884 C132.364,25.5884 131.895,25.4675 131.402,25.2743 Z" id="Path"></path>
        </g>
    </g>
</svg>