<?xml version="1.0" encoding="UTF-8"?>
<svg width="142px" height="26px" viewBox="0 0 142 26" version="1.1" xmlns="http://www.w3.org/2000/svg" xmlns:xlink="http://www.w3.org/1999/xlink">
    <!-- Generator: Sketch 53.2 (72643) - https://sketchapp.com -->
    <title>logo_PA</title>
    <desc>Created with Sketch.</desc>
    <g id="Page-1" stroke="none" stroke-width="1" fill="none" fill-rule="evenodd">
        <g id="logo_PA" transform="translate(0.000000, -5.000000)" fill="#FFFFFF" fill-rule="nonzero">
            <g id="Group-2" transform="translate(0.000000, 5.000000)">
                <polygon id="Path" points="25.4785 4.625877 20.8529 0.000213 16.2272 4.625877 18.5281 6.927857 6.92834 18.527637 11.554 23.153337 16.1797 18.527637 13.8787 16.226737"></polygon>
                <polygon id="Path" points="11.6001 -6.03961325e-14 4.86721774e-13 11.600137 4.62603 16.226137 16.2262 4.626027"></polygon>
                <polygon id="Path" points="27.7795 6.928087 16.1793 18.528237 20.8054 23.154237 32.4055 11.554137"></polygon>
            </g>
            <path d="M140.709,10.54211 L140.709,10.47185 C140.709,10.07304 140.404,9.79097 139.864,9.79097 L138.924,9.79097 L138.924,11.9514 L139.371,11.9514 L139.371,11.22299 L139.867,11.22299 L140.24,11.9514 L140.733,11.9514 L140.274,11.09694 C140.553,11.01119 140.709,10.80248 140.709,10.54211 Z M139.37,10.18979 L139.863,10.18979 C140.145,10.18979 140.261,10.28381 140.261,10.49562 L140.261,10.51938 C140.261,10.70742 140.144,10.82418 139.863,10.82418 L139.37,10.82418 L139.37,10.18979 Z" id="Shape"></path>
            <path d="M139.77,8.63997 C138.502,8.63997 137.539,9.60292 137.539,10.87066 C137.539,12.1384 138.502,13.10135 139.77,13.10135 C141.037,13.10135 142,12.1384 142,10.87066 C142,9.60292 141.037,8.63997 139.77,8.63997 Z M139.77,12.79552 C138.666,12.79552 137.868,11.99685 137.868,10.86963 C137.868,9.7424 138.666,8.94373 139.77,8.94373 C140.873,8.94373 141.672,9.7424 141.672,10.86963 C141.672,11.99685 140.873,12.79552 139.77,12.79552 Z" id="Shape"></path>
            <g id="Group" transform="translate(96.044800, 27.015500)">
                <polygon id="Path" points="2.22044605e-16 0.1013 1.0528 0.1013 2.5062 2.0179 2.5212 2.0179 2.5212 0.1013 3.4872 0.1013 3.4872 3.4809 2.4682 3.4809 0.9805 1.5157 0.9661 1.5157 0.9661 3.4809 2.22044605e-16 3.4809"></polygon>
                <polygon id="Path" points="4.7712 0.1013 7.7262 0.1013 7.7652 0.9217 5.7812 0.9217 5.7812 1.3856 7.3402 1.3856 7.3402 2.1336 5.7812 2.1336 5.7812 2.6605 7.8232 2.6605 7.7842 3.4809 4.7712 3.4809"></polygon>
                <polygon id="Path" points="9.8802 0.9702 8.6972 0.9702 8.7352 0.1013 12.0432 0.1013 12.0822 0.9702 10.8992 0.9702 10.8992 3.4809 9.8802 3.4809"></polygon>
                <polygon id="Path" points="12.8982 0.1013 13.9792 0.1013 14.5292 2.4477 14.5832 2.4477 15.2972 0.1013 16.2882 0.1013 16.9872 2.4477 17.0412 2.4477 17.5812 0.1013 18.6152 0.1013 17.7262 3.4809 16.3982 3.4809 15.7812 1.4434 15.7522 1.4434 15.1232 3.4809 13.7912 3.4809"></polygon>
                <path d="M19.3592,1.7916 C19.3592,0.6902 20.1072,1.77635684e-15 21.2902,1.77635684e-15 C22.4732,1.77635684e-15 23.2222,0.6902 23.2222,1.7916 C23.2222,2.893 22.4742,3.5832 21.2902,3.5832 C20.1072,3.5832 19.3592,2.892 19.3592,1.7916 Z M22.2132,1.7916 C22.2132,1.2079 21.8752,0.8597 21.2902,0.8597 C20.7052,0.8597 20.3672,1.2079 20.3672,1.7916 C20.3672,2.3764 20.7052,2.7236 21.2852,2.7236 C21.8702,2.7236 22.2132,2.3754 22.2132,1.7916 Z" id="Shape"></path>
                <path d="M24.3192,0.1013 L26.2892,0.1013 C27.1872,0.1013 27.6272,0.5259 27.6272,1.3132 C27.6272,1.8536 27.4052,2.2214 26.9702,2.395 L27.7712,3.4819 L26.6232,3.4819 L26.0002,2.5934 L25.3332,2.5934 L25.3332,3.4819 L24.3192,3.4819 L24.3192,0.1013 Z M26.1582,1.8009 C26.4952,1.8009 26.6162,1.6129 26.6162,1.3566 C26.6162,1.1004 26.4952,0.9175 26.1582,0.9175 L25.3322,0.9175 L25.3322,1.8009 L26.1582,1.8009 Z" id="Shape"></path>
                <polygon id="Path" points="28.9442 0.1013 29.9582 0.1013 29.9582 1.3473 30.3732 1.3473 31.3632 0.1013 32.5032 0.1013 32.5082 0.1054 31.2142 1.7234 32.5802 3.4768 32.5752 3.4809 31.3922 3.4809 30.3692 2.1822 29.9582 2.1822 29.9582 3.4809 28.9442 3.4809"></polygon>
                <path d="M33.3572,3.2588 L33.3572,2.332 L33.3622,2.332 C33.9272,2.6171 34.4782,2.7566 34.9552,2.7566 C35.3182,2.7566 35.5012,2.6698 35.5012,2.5004 C35.5012,2.3309 35.3802,2.2876 34.6562,2.1718 C33.8642,2.0468 33.3372,1.8092 33.3372,1.1283 C33.3372,0.496 33.8932,0.0083 34.9792,0.0083 C35.4142,0.0083 35.8682,0.1003 36.2882,0.279 L36.2882,1.1965 L36.2832,1.2017 C35.8822,0.9702 35.3422,0.8245 34.9072,0.8245 C34.5202,0.8245 34.3662,0.9165 34.3662,1.0704 C34.3662,1.2688 34.6032,1.2874 35.1972,1.3897 C35.9882,1.525 36.5152,1.7472 36.5152,2.4622 C36.5152,3.017 36.1002,3.5729 34.9082,3.5729 C34.3192,3.5729 33.8502,3.452 33.3572,3.2588 Z" id="Path"></path>
            </g>
            <path d="M41.9080885,23.28 C38.1680885,23.28 35.1280885,20.6 35.1280885,15.66 C35.1280885,10.78 38.2680885,7.92 42.0080885,7.92 C43.8880885,7.92 45.3880885,8.82 46.3480885,9.82 L44.7880885,11.7 C44.0480885,10.98 43.1880885,10.46 42.0680885,10.46 C39.8280885,10.46 38.1480885,12.38 38.1480885,15.56 C38.1480885,18.78 39.6680885,20.72 42.0080885,20.72 C43.2680885,20.72 44.2680885,20.12 45.0680885,19.26 L46.6280885,21.1 C45.4080885,22.52 43.8280885,23.28 41.9080885,23.28 Z M55.1607201,23.28 C51.2407201,23.28 48.5407201,20.34 48.5407201,15.54 C48.5407201,10.72 51.2407201,7.92 55.1607201,7.92 C59.0807201,7.92 61.7807201,10.74 61.7807201,15.54 C61.7807201,20.34 59.0807201,23.28 55.1607201,23.28 Z M55.1607201,20.72 C57.3607201,20.72 58.7607201,18.7 58.7607201,15.54 C58.7607201,12.36 57.3607201,10.46 55.1607201,10.46 C52.9607201,10.46 51.5607201,12.36 51.5607201,15.54 C51.5607201,18.7 52.9607201,20.72 55.1607201,20.72 Z M65.7333517,23 L65.7333517,8.2 L69.0133517,8.2 L71.5333517,15.12 C71.8533517,16.04 72.1333517,17.02 72.4333517,17.98 L72.5333517,17.98 C72.8533517,17.02 73.1133517,16.04 73.4333517,15.12 L75.8933517,8.2 L79.1733517,8.2 L79.1733517,23 L76.4733517,23 L76.4733517,16.82 C76.4733517,15.42 76.6933517,13.36 76.8333517,11.96 L76.7533517,11.96 L75.5533517,15.44 L73.2733517,21.66 L71.5733517,21.66 L69.2733517,15.44 L68.0933517,11.96 L68.0133517,11.96 C68.1533517,13.36 68.3933517,15.42 68.3933517,16.82 L68.3933517,23 L65.7333517,23 Z M83.8659834,23 L83.8659834,8.2 L88.7259834,8.2 C92.0059834,8.2 94.5259834,9.34 94.5259834,12.84 C94.5259834,16.22 91.9859834,17.74 88.8059834,17.74 L86.8259834,17.74 L86.8259834,23 L83.8659834,23 Z M86.8259834,15.4 L88.6059834,15.4 C90.6459834,15.4 91.6259834,14.54 91.6259834,12.84 C91.6259834,11.12 90.5459834,10.54 88.5059834,10.54 L86.8259834,10.54 L86.8259834,15.4 Z M99.918615,16.9 L103.438615,16.9 L102.998615,15.28 C102.538615,13.74 102.138615,12.04 101.698615,10.44 L101.618615,10.44 C101.238615,12.06 100.798615,13.74 100.358615,15.28 L99.918615,16.9 Z M105.118615,23 L104.078615,19.2 L99.278615,19.2 L98.238615,23 L95.238615,23 L99.978615,8.2 L103.458615,8.2 L108.218615,23 L105.118615,23 Z M111.011247,23 L111.011247,8.2 L114.031247,8.2 L118.331247,16.08 L119.811247,19.28 L119.911247,19.28 C119.751247,17.74 119.531247,15.78 119.531247,14.1 L119.531247,8.2 L122.331247,8.2 L122.331247,23 L119.331247,23 L115.051247,15.08 L113.551247,11.9 L113.451247,11.9 C113.591247,13.5 113.811247,15.36 113.811247,17.06 L113.811247,23 L111.011247,23 Z M129.543878,23 L129.543878,17.58 L125.103878,8.2 L128.243878,8.2 L129.723878,11.8 C130.143878,12.9 130.543878,13.94 131.003878,15.08 L131.083878,15.08 C131.543878,13.94 131.983878,12.9 132.403878,11.8 L133.883878,8.2 L136.963878,8.2 L132.503878,17.58 L132.503878,23 L129.543878,23 Z" id="COMPANY"></path>
        </g>
    </g>
</svg>