<?xml version="1.0" encoding="UTF-8"?>
<svg width="24px" height="24px" viewBox="0 0 24 24" version="1.1" xmlns="http://www.w3.org/2000/svg" xmlns:xlink="http://www.w3.org/1999/xlink">
    <!-- Generator: Sketch 53.2 (72643) - https://sketchapp.com -->
    <title>topicon-conf</title>
    <desc>Created with Sketch.</desc>
    <g id="topicon-conf" stroke="none" stroke-width="1" fill="none" fill-rule="evenodd">
        <path d="M14.4375623,12.3159504 C14.4280878,10.8826702 13.3256578,9.72171199 11.9799329,9.72752978 C10.6414601,9.73334756 9.52359019,10.9143586 9.51703995,12.3295665 C9.51037273,13.7727493 10.6478933,14.9553695 12.0223925,14.934574 C13.3896397,14.9139023 14.4471537,13.7671791 14.4375623,12.3159504 M17.2393136,5.85572982 C17.8810039,6.70723121 18.4982477,7.52630152 19.1305805,8.36517707 C18.840966,8.79433179 18.6149825,9.2421777 18.2900434,9.58493207 C17.7912889,10.1106373 17.8500072,10.6842465 18.0540006,11.2766706 C18.1165788,11.4578885 18.3190516,11.6067992 18.4871357,11.7217933 C18.9869429,12.0640526 19.7354256,12.2676751 19.9425772,12.7426295 C20.1387337,13.1922083 19.7796398,13.9179465 19.6528457,14.5194067 C19.3874438,15.7780295 19.3847535,15.8173924 18.1414932,15.8359598 C17.4746546,15.8459862 16.9110994,15.9400611 16.5965706,16.6294071 C16.5198391,16.7972565 16.4920005,16.9979083 16.4765607,17.1868008 C16.4650977,17.3265515 16.5081422,17.4719962 16.5303663,17.6143463 C16.7785739,19.2053257 16.7788078,19.2053257 15.429106,19.8951668 C14.99176,20.1187185 14.5539461,20.3412798 14.0596364,20.5933014 C13.6532871,20.1089396 13.2458852,19.6161606 12.8308802,19.1306847 C12.4716693,18.7105661 11.5299543,18.6957122 11.1691059,19.1096417 C10.7598324,19.578902 10.3640103,20.0614071 9.91789168,20.5909496 C9.01898722,20.1338199 8.11657369,19.6749574 7.19158521,19.2044592 C7.27299542,18.6666233 7.34212392,18.1604757 7.42716017,17.6574227 C7.62015853,16.515527 7.17275325,15.9159235 6.09137761,15.8636872 C5.60665931,15.8401685 5.12299373,15.7946164 4.59534792,15.7558724 C4.39030179,14.7987844 4.17566423,13.8621205 4.00278449,12.9167918 C3.97822106,12.7823637 4.12080591,12.5471765 4.24795088,12.4605286 C4.63979603,12.1935293 5.08696737,12.0129303 5.4624369,11.725383 C5.68537925,11.5545628 5.8455094,11.2629307 5.97768403,10.9945698 C6.22635949,10.4892887 6.04915191,10.0632285 5.72070379,9.65028935 C5.40886524,9.25814567 5.15083228,8.81785051 4.84601185,8.36418681 C5.46933806,7.53608036 6.08646492,6.71626735 6.73178124,5.85907196 C7.31311569,6.11220763 7.88170054,6.36534331 8.4543793,6.60758611 C8.97839908,6.8291572 9.81741557,6.38849068 9.97883238,5.8121583 C10.1441092,5.22245738 10.3048241,4.63127108 10.4779378,4.0025786 C11.4084238,4.0025786 12.3226512,3.99106681 13.2360598,4.01668983 C13.3564206,4.02003196 13.5323415,4.19048078 13.5786611,4.32391856 C13.7258077,4.74787441 13.8455837,5.18606526 13.9343629,5.62821717 C14.0177616,6.04313687 14.2037418,6.28995963 14.584475,6.48058503 C15.0105919,6.69398646 15.3596265,6.73644393 15.783872,6.50113297 C16.228821,6.25431021 16.7123696,6.08509922 17.2393136,5.85572982" id="Fill-1" fill="#FFFFFF"></path>
    </g>
</svg>