<?xml version="1.0" encoding="UTF-8"?>
<svg width="24px" height="24px" viewBox="0 0 24 24" version="1.1" xmlns="http://www.w3.org/2000/svg" xmlns:xlink="http://www.w3.org/1999/xlink">
    <!-- Generator: Sketch 53.2 (72643) - https://sketchapp.com -->
    <title>topicon-mng</title>
    <desc>Created with Sketch.</desc>
    <g id="topicon-mng" stroke="none" stroke-width="1" fill="none" fill-rule="evenodd">
        <path d="M9.28571833,9.85713315 L14.7142962,9.85713315 L14.7142962,7.82141644 C14.7142962,6.32643698 13.4949867,5.10712749 12.0000073,5.10712749 C10.5050278,5.10712749 9.28571833,6.32643698 9.28571833,7.82141644 L9.28571833,9.85713315 Z M18.1071574,10.8749915 L18.1071574,16.9821416 C18.1071574,17.5440843 17.6512417,18 17.0892991,18 L6.9107155,18 C6.34877286,18 5.89285714,17.5440843 5.89285714,16.9821416 L5.89285714,10.8749915 C5.89285714,10.3130489 6.34877286,9.85713315 6.9107155,9.85713315 L7.25000162,9.85713315 L7.25000162,7.82141644 C7.25000162,5.2131544 9.39174524,3.07141078 12.0000073,3.07141078 C14.6082693,3.07141078 16.7500129,5.2131544 16.7500129,7.82141644 L16.7500129,9.85713315 L17.0892991,9.85713315 C17.6512417,9.85713315 18.1071574,10.3130489 18.1071574,10.8749915 Z" id="" fill="#FFFFFF" fill-rule="nonzero"></path>
    </g>
</svg>