<?xml version="1.0" encoding="UTF-8"?>
<svg width="24px" height="24px" viewBox="0 0 24 24" version="1.1" xmlns="http://www.w3.org/2000/svg" xmlns:xlink="http://www.w3.org/1999/xlink">
    <!-- Generator: Sketch 53.2 (72643) - https://sketchapp.com -->
    <title>topicon-repo</title>
    <desc>Created with Sketch.</desc>
    <g id="topicon-repo" stroke="none" stroke-width="1" fill="none" fill-rule="evenodd">
        <polygon id="Fill-1" fill="#FEFEFE" points="3.45348777 3 3 4.44049058 3.3119025 4.44049058 3.3119025 20.2446095 3.3119025 20.4099831 3.3119025 20.6046333 19.8671104 20.6046333 19.8671104 21 21 20.4246214 19.8671104 19.847924 19.8671104 20.2446095 3.59517677 20.2446095 3.59517677 19.2606765 9.14614919 19.2606765 9.14614919 19.2643691 18.4615265 19.2643691 18.4615265 16.5182979 9.14614919 16.5182979 9.14614919 16.5223861 3.59517677 16.5223861 3.59517677 15.479636 7.85736019 15.479636 7.85736019 15.4837242 14.7904745 15.4837242 14.7904745 12.7368618 7.85736019 12.7368618 7.85736019 12.7417412 3.59517677 12.7417412 3.59517677 11.6981999 8.11480681 11.6981999 8.14125681 11.6981999 8.33449736 11.6981999 8.78694788 11.6981999 9.11160861 11.6981999 9.5639554 11.6981999 9.88871985 11.6981999 10.3406517 11.6981999 10.6654162 11.6981999 11.117763 11.6981999 11.44232 11.6981999 11.8944593 11.6981999 12.2194312 11.6981999 12.6715706 11.6981999 12.9961276 11.6981999 13.4484744 11.6981999 13.7732388 11.6981999 14.2251707 11.6981999 17.1107097 11.6981999 17.1107097 8.95226059 8.11480681 8.95226059 8.11480681 8.95990944 3.59517677 8.95990944 3.59517677 7.71973976 5.16360965 7.71973976 5.21650964 7.71973976 5.24845708 7.71973976 5.70038897 7.71973976 6.0254646 7.71973976 6.47750022 7.71973976 8.81370905 7.71973976 8.81370905 5.31931776 6.48683551 5.31931776 6.35946063 5.31931776 6.03438499 5.31931776 5.58234938 5.31931776 5.25768865 5.31931776 5.21650964 5.31931776 5.16360965 5.31931776 3.59517677 5.31931776 3.59517677 4.44049058 3.90656064 4.44049058"></polygon>
    </g>
</svg>