<?xml version="1.0" encoding="UTF-8"?>
<svg width="24px" height="24px" viewBox="0 0 24 24" version="1.1" xmlns="http://www.w3.org/2000/svg" xmlns:xlink="http://www.w3.org/1999/xlink">
    <!-- Generator: Sketch 53.2 (72643) - https://sketchapp.com -->
    <title>topicon-acc</title>
    <desc>Created with Sketch.</desc>
    <defs>
        <polygon id="path-1" points="0 0 18 0 18 18 0 18"></polygon>
    </defs>
    <g id="topicon-acc" stroke="none" stroke-width="1" fill="none" fill-rule="evenodd">
        <g transform="translate(3.000000, 3.000000)">
            <mask id="mask-2" fill="white">
                <use xlink:href="#path-1"></use>
            </mask>
            <g id="Clip-2"></g>
            <path d="M14.3882386,8.39993182 C14.3560227,7.56336468 14.25375,6.75850118 14.0931818,6.00017045 L16.2030682,6.00017045 C16.5144886,6.74776285 16.7134091,7.55518309 16.7768182,8.39993182 L14.3882386,8.39993182 Z M16.2030682,11.9998296 L14.0931818,11.9998296 C14.25375,11.2420102 14.3560227,10.4366353 14.3882386,9.60006818 L16.7768182,9.60006818 C16.7134091,10.4448169 16.5144886,11.2522372 16.2030682,11.9998296 L16.2030682,11.9998296 Z M12.3657955,16.0384648 C12.9456818,15.2673504 13.4273864,14.3014119 13.7792045,13.1999659 L15.5746023,13.1999659 C14.7927273,14.4210676 13.6805114,15.4079714 12.3657955,16.0384648 L12.3657955,16.0384648 Z M9.60034091,16.7226499 L9.60034091,13.1999659 L12.5406818,13.1999659 C11.8958523,15.0679242 10.8327273,16.3933411 9.60034091,16.7226499 L9.60034091,16.7226499 Z M9.60034091,9.60006818 L13.1885795,9.60006818 C13.1532955,10.4448169 13.0464205,11.2522372 12.8771591,11.9998296 L9.60034091,11.9998296 L9.60034091,9.60006818 Z M9.60034091,6.00017045 L12.8771591,6.00017045 C13.0464205,6.74776285 13.1507386,7.55518309 13.1885795,8.39993182 L9.60034091,8.39993182 L9.60034091,6.00017045 Z M9.60034091,1.27735008 C10.8327273,1.60717025 11.8958523,2.93258714 12.5406818,4.80003409 L9.60034091,4.80003409 L9.60034091,1.27735008 Z M15.5746023,4.80003409 L13.7792045,4.80003409 C13.4273864,3.69858811 12.9482386,2.73316099 12.3657955,1.96204653 C13.6805114,2.59253998 14.7927273,3.57893242 15.5746023,4.80003409 L15.5746023,4.80003409 Z M8.40017045,4.80003409 L5.45982955,4.80003409 C6.10414773,2.93258714 7.16727273,1.60717025 8.40017045,1.27735008 L8.40017045,4.80003409 Z M8.40017045,8.39993182 L4.81193182,8.39993182 C4.84670455,7.55518309 4.95357955,6.74776285 5.12335227,6.00017045 L8.40017045,6.00017045 L8.40017045,8.39993182 Z M8.40017045,11.9998296 L5.12335227,11.9998296 C4.95357955,11.2522372 4.84670455,10.4448169 4.81193182,9.60006818 L8.40017045,9.60006818 L8.40017045,11.9998296 Z M8.40017045,16.7226499 C7.16727273,16.3933411 6.10414773,15.0679242 5.45982955,13.1999659 L8.40017045,13.1999659 L8.40017045,16.7226499 Z M2.42590909,13.1999659 L4.22130682,13.1999659 C4.57261364,14.3014119 5.05329545,15.2673504 5.63420455,16.0384648 C4.31948864,15.4079714 3.20727273,14.4210676 2.42590909,13.1999659 L2.42590909,13.1999659 Z M1.22318182,9.60006818 L3.61176136,9.60006818 C3.64448864,10.4366353 3.74625,11.2420102 3.90681818,11.9998296 L1.79744318,11.9998296 C1.48602273,11.2522372 1.28659091,10.4448169 1.22318182,9.60006818 L1.22318182,9.60006818 Z M1.79744318,6.00017045 L3.90681818,6.00017045 C3.74625,6.75850118 3.64448864,7.56336468 3.61176136,8.39993182 L1.22318182,8.39993182 C1.28659091,7.55518309 1.48602273,6.74776285 1.79744318,6.00017045 L1.79744318,6.00017045 Z M5.63420455,1.96204653 C5.05431818,2.73316099 4.57261364,3.69858811 4.22386364,4.80003409 L2.42590909,4.80003409 C3.20727273,3.57893242 4.31948864,2.59253998 5.63420455,1.96204653 L5.63420455,1.96204653 Z M17.9790341,8.39993182 C17.6839773,3.90721854 14.0931818,0.316525099 9.60034091,0.0209653135 L9.60034091,0 L9,0 L8.40017045,0 L8.40017045,0.0209653135 C3.90681818,0.316525099 0.316534091,3.90721854 0.0209659091,8.39993182 L0,8.39993182 L0,9.00025567 L0,9.60006818 L0.0209659091,9.60006818 C0.316534091,14.0932928 3.90681818,17.6834749 8.40017045,17.9785233 L8.40017045,18 L9,18 L9.60034091,18 L9.60034091,17.9785233 C14.0931818,17.6834749 17.6839773,14.0932928 17.9790341,9.60006818 L18,9.60006818 L18,9.00025567 L18,8.39993182 L17.9790341,8.39993182 Z" id="Fill-1" fill="#FEFEFE" mask="url(#mask-2)"></path>
        </g>
    </g>
</svg>