<?xml version="1.0" encoding="UTF-8"?>
<svg width="50px" height="50px" viewBox="0 0 50 50" version="1.1" xmlns="http://www.w3.org/2000/svg" xmlns:xlink="http://www.w3.org/1999/xlink">
    <!-- Generator: Sketch 53.2 (72643) - https://sketchapp.com -->
    <title>Artboard</title>
    <desc>Created with Sketch.</desc>
    <g id="Artboard" stroke="none" stroke-width="1" fill="none" fill-rule="evenodd">
        <g id="Group" transform="translate(7.000000, 11.000000)" fill="#FFFFFF">
            <path d="M1.82445759,3.64891519 L34.6646943,3.64891519 C35.1588231,3.64891519 35.5864249,3.46837416 35.9475142,3.10727751 C36.3086108,2.74618817 36.4891519,2.31858639 36.4891519,1.82445759 C36.4891519,1.3303288 36.3086108,0.902727022 35.9475142,0.541637673 C35.5864249,0.180541026 35.1588231,0 34.6646943,0 L1.82445759,0 C1.33033099,0 0.902728481,0.180541026 0.541635848,0.541637673 C0.180543507,0.902727022 0,1.3303288 0,1.82445759 C0,2.31858639 0.180543507,2.74618817 0.541635848,3.10727751 C0.902728481,3.46837416 1.33033099,3.64891519 1.82445759,3.64891519 Z" id="Path"></path>
            <path d="M34.6646943,25.1913215 L1.82445759,25.1913215 C1.33033099,25.1913215 0.902728481,25.3718647 0.541635848,25.7329577 C0.180543507,26.09405 0,26.5216525 0,27.0157791 C0,27.5099057 0.180543507,27.9375082 0.541635848,28.2986008 C0.902728481,28.6596932 1.33033099,28.8402367 1.82445759,28.8402367 L34.6646943,28.8402367 C35.1588231,28.8402367 35.5864249,28.6596932 35.9475142,28.2986008 C36.3086108,27.9375082 36.4891519,27.5099057 36.4891519,27.0157791 C36.4891519,26.5216525 36.3086108,26.09405 35.9475142,25.7329577 C35.5864249,25.3718647 35.1588231,25.1913215 34.6646943,25.1913215 Z" id="Path"></path>
            <path d="M34.6646943,12.5956607 L1.82445759,12.5956607 C1.33033099,12.5956607 0.902728481,12.7762018 0.541635848,13.1372984 C0.180543507,13.4983878 0,13.9259895 0,14.4201183 C0,14.9142471 0.180543507,15.3418489 0.541635848,15.7029383 C0.902728481,16.0640349 1.33033099,16.2445759 1.82445759,16.2445759 L34.6646943,16.2445759 C35.1588231,16.2445759 35.5864249,16.0640349 35.9475142,15.7029383 C36.3086108,15.3418489 36.4891519,14.9142471 36.4891519,14.4201183 C36.4891519,13.9259895 36.3086108,13.4983878 35.9475142,13.1372984 C35.5864249,12.7762018 35.1588231,12.5956607 34.6646943,12.5956607 Z" id="Path"></path>
        </g>
    </g>
</svg>