<?xml version="1.0" encoding="UTF-8"?>
<svg width="24px" height="24px" viewBox="0 0 24 24" version="1.1" xmlns="http://www.w3.org/2000/svg" xmlns:xlink="http://www.w3.org/1999/xlink">
    <!-- Generator: Sketch 53.2 (72643) - https://sketchapp.com -->
    <title>topicon-board</title>
    <desc>Created with Sketch.</desc>
    <g id="topicon-board" stroke="none" stroke-width="1" fill="none" fill-rule="evenodd">
        <path d="M6.50227455,13.9285666 C6.50227455,13.1757755 5.89792115,12.5714221 5.14513007,12.5714221 C4.392339,12.5714221 3.7879856,13.1757755 3.7879856,13.9285666 C3.7879856,14.6813577 4.392339,15.2857111 5.14513007,15.2857111 C5.89792115,15.2857111 6.50227455,14.6813577 6.50227455,13.9285666 Z M8.53799126,9.17856091 C8.53799126,8.42576984 7.93363786,7.82141644 7.18084678,7.82141644 C6.42805571,7.82141644 5.82370231,8.42576984 5.82370231,9.17856091 C5.82370231,9.93135199 6.42805571,10.5357054 7.18084678,10.5357054 C7.93363786,10.5357054 8.53799126,9.93135199 8.53799126,9.17856091 Z M13.0759431,14.2784554 L14.1468149,10.2282273 C14.2316364,9.86773584 14.0195826,9.49664165 13.6590911,9.40121743 C13.2985996,9.30579321 12.9275054,9.52844972 12.8320812,9.88894122 L11.7612094,13.9391693 C10.9235968,14.0027854 10.1920111,14.5859334 9.95875188,15.4447514 C9.67247922,16.5368286 10.3298461,17.6501112 11.4113206,17.9363839 C12.5033978,18.2226565 13.6166803,17.5652897 13.902953,16.4838152 C14.1256095,15.6249972 13.765118,14.7555765 13.0759431,14.2784554 Z M20.0737193,13.9285666 C20.0737193,13.1757755 19.4693659,12.5714221 18.7165748,12.5714221 C17.9637837,12.5714221 17.3594303,13.1757755 17.3594303,13.9285666 C17.3594303,14.6813577 17.9637837,15.2857111 18.7165748,15.2857111 C19.4693659,15.2857111 20.0737193,14.6813577 20.0737193,13.9285666 Z M13.2879969,7.1428442 C13.2879969,6.39005312 12.6836435,5.78569973 11.9308524,5.78569973 C11.1780614,5.78569973 10.573708,6.39005312 10.573708,7.1428442 C10.573708,7.89563528 11.1780614,8.49998868 11.9308524,8.49998868 C12.6836435,8.49998868 13.2879969,7.89563528 13.2879969,7.1428442 Z M18.0380026,9.17856091 C18.0380026,8.42576984 17.4336492,7.82141644 16.6808581,7.82141644 C15.928067,7.82141644 15.3237136,8.42576984 15.3237136,9.17856091 C15.3237136,9.93135199 15.928067,10.5357054 16.6808581,10.5357054 C17.4336492,10.5357054 18.0380026,9.93135199 18.0380026,9.17856091 Z M21.4308638,13.9285666 C21.4308638,15.7522295 20.9113319,17.5122762 19.9358843,19.0496664 C19.808652,19.2405149 19.5965982,19.3571445 19.363339,19.3571445 L4.49836591,19.3571445 C4.2651067,19.3571445 4.05305288,19.2405149 3.92582058,19.0496664 C2.95037299,17.5228789 2.43084112,15.7522295 2.43084112,13.9285666 C2.43084112,8.69083712 6.69312299,4.42855525 11.9308524,4.42855525 C17.1685819,4.42855525 21.4308638,8.69083712 21.4308638,13.9285666 Z" id="" fill="#FFFFFF" fill-rule="nonzero"></path>
    </g>
</svg>